<svg width="323" height="110" viewBox="0 0 323 110" fill="none" xmlns="http://www.w3.org/2000/svg">
<path d="M124.676 52.4L122 62H144.622L149 46H126.378L125.162 50.4308H137.324L136.838 52.4H124.676ZM131.73 58.8L132.703 55.6H136.108L135.135 58.8H131.73Z" fill="white"/>
<path d="M69.1193 55.6L68.6422 57.8154H57.1927L56 62H77.7064L80.3303 52.4H70.0734L70.5505 50.4308H80.8073L82 46H60.2936L57.6697 55.6H69.1193Z" fill="white"/>
<path d="M158.459 62L160.162 55.6H172.324L175 46H152.378L148 62H158.459ZM165.027 49.4462L164.297 52.6462H160.892L161.865 49.4462H165.027Z" fill="white"/>
<path d="M162.905 19.1255C157.116 17.16 152.291 16.4229 148.673 16.1772C144.09 15.6859 132.028 16.1772 122.862 18.1427C116.59 19.6169 110.56 21.5823 104.529 24.7763C96.5686 28.953 88.6083 34.6038 83.3013 42.9571H125.757C126.963 39.0261 129.616 36.3236 132.27 33.8667C139.506 27.7245 149.397 26.7418 153.256 26.7418C156.633 26.7418 160.252 26.9875 162.664 27.4788C167.247 28.4616 172.072 30.6728 175.207 33.1297C181.479 37.7977 183.892 43.4485 183.409 50.3278C182.685 59.9096 175.69 65.3147 168.453 65.3147H51.9423L58.9378 39.0261H62.3149L63.7622 33.621H42.2934L32.6444 40.9916L31.1971 46.3968H25.1665L23.9604 50.5735H30.2322L28.5436 55.9786H17.6886L16 62.3664H37.2277L40.3636 50.8191H45.4293L40.6048 69H167.488C176.414 69 184.133 63.3492 187.027 54.0131C189.681 45.1683 186.545 37.0606 181.962 31.9012C179.308 28.4616 174.243 23.0565 162.905 19.1255ZM41.5697 46.3968L43.017 40.746L45.4293 39.0261H48.8064L46.8766 46.3968H41.5697Z" fill="white"/>
<path d="M109.724 46L102.724 51.4154L98.6207 46H85.3448L81 62H91.3793L94.5172 50.4308H95.7241L97.4138 52.4L94.7586 62H105.138L107.793 52.4L110.448 50.4308H111.414L108.276 62H118.655L123 46H109.724Z" fill="white"/>
<path d="M87.6154 80H86.4615L86 82H87.1538C88.3077 82 88.7692 81.5556 89 80.8889C89 80.6667 89 80.4444 88.7692 80.4444C88.5384 80 88.0769 80 87.6154 80Z" fill="white"/>
<path d="M39.5945 74L35 90H163.405L168 74H39.5945ZM52.4109 80.9254C53.8618 81.403 54.5873 82.1194 54.5873 83.3134C54.5873 84.9851 52.8945 86.4179 50.7182 86.4179C49.0255 86.4179 47.5745 85.9403 46.6073 84.7463L48.3 83.0746C49.0255 83.791 49.9927 84.2687 50.96 84.2687C51.4436 84.2687 51.9273 84.0298 51.9273 83.5522C51.9273 83.3134 51.6855 83.0746 50.4764 82.597C49.0255 82.1194 48.3 81.403 48.3 80.209C48.3 78.5373 49.9927 77.3433 52.1691 77.3433C53.62 77.3433 54.8291 77.8209 55.7964 78.5373L54.1036 80.4478C53.3782 79.9702 52.6527 79.4925 51.6855 79.4925C51.2018 79.4925 50.7182 79.7313 50.7182 80.209C50.96 80.4478 51.2018 80.4478 52.4109 80.9254ZM73.4491 79.7313H68.8545L68.3709 80.9254H72.4818L72.24 82.8358H68.1291L67.6455 84.2687H72.24L71.7564 86.4179H64.7436L67.1618 77.8209H74.1745L73.4491 79.7313ZM88.6836 83.3134L89.8927 86.1791H87.2327L86.0236 83.5522H85.0564L84.3309 86.1791H81.9127L84.3309 77.5821H87.7164C89.1673 77.5821 90.1345 77.8209 90.6182 78.5373C91.1018 79.0149 91.3436 79.7313 91.3436 80.209C91.3436 81.6418 90.3764 82.8358 88.6836 83.3134ZM103.435 86.4179H101.258L100.291 77.5821H102.951L103.435 83.0746L106.82 77.5821H109.48L103.435 86.4179ZM118.669 86.1791H116.251L118.669 77.5821H121.087L118.669 86.1791ZM135.596 84.2687C136.322 84.2687 136.805 84.0299 137.531 83.3134L139.224 84.7463C138.256 85.7015 137.289 86.4179 135.596 86.4179C133.178 86.4179 131.485 84.9851 131.485 82.597C131.485 79.9702 133.662 77.3433 137.047 77.3433C138.74 77.3433 140.191 78.2985 140.675 79.4925L138.498 80.6866C138.256 79.9701 137.531 79.4925 136.805 79.4925C135.355 79.4925 134.145 80.9254 134.145 82.3582C133.662 83.5522 134.387 84.2687 135.596 84.2687ZM157.36 79.7313H152.765L152.282 80.9254H156.393L155.909 82.8358H151.798L151.315 84.2687H155.909L155.425 86.4179H148.413L150.831 77.8209H157.844L157.36 79.7313Z" fill="white"/>
<path d="M255.156 82.8947C253.689 88.1053 252.711 88.3421 252.222 88.3421C251.978 88.3421 251.733 88.3421 251.489 88.3421L251 89.7632C251.244 89.7632 251.733 90 252.467 90C254.178 90 255.4 89.2895 256.867 83.8421L257.111 82.8947H259.556L257.6 89.7632H259.556L262 81H255.644L255.156 82.8947Z" fill="url(#paint0_linear_19_192)"/>
<path d="M269 90H275.568L276.054 88.25H271.189L271.919 86.25H276.054L276.297 84.5H272.162L272.649 82.75H277.514L278 81H271.189L269 90Z" fill="url(#paint1_linear_19_192)"/>
<path d="M286 82.75H288.75L286.75 90H288.75L290.75 82.75H293.5L294 81H286.5L286 82.75Z" fill="url(#paint2_linear_19_192)"/>
<path d="M254.196 67.9091H229.196L232.382 56.0303H257.627L264 33H225.029L221.598 45.6061H235.324L237.529 38.3333H248.559L245.127 50.9394H220.127L214 73H252.725L254.196 67.9091Z" fill="url(#paint3_linear_19_192)"/>
<path d="M268.274 33L257 73H295.971L307 33H268.274ZM283.716 67.9091H272.441L280.775 38.3333H292.049L283.716 67.9091Z" fill="url(#paint4_linear_19_192)"/>
<mask id="path-13-inside-1_19_192" fill="white">
<path d="M193.692 90L214 16H212.308L192 90H193.692Z"/>
</mask>
<path d="M193.692 90L214 16H212.308L192 90H193.692Z" fill="#00B1EB"/>
<path d="M193.692 90V91.8136H195.075L195.441 90.48L193.692 90ZM214 16L215.749 16.48L216.378 14.1864H214V16ZM212.308 16V14.1864H210.925L210.559 15.52L212.308 16ZM192 90L190.251 89.52L189.622 91.8136H192V90ZM195.441 90.48L215.749 16.48L212.251 15.52L191.943 89.52L195.441 90.48ZM214 14.1864H212.308V17.8136H214V14.1864ZM210.559 15.52L190.251 89.52L193.749 90.48L214.057 16.48L210.559 15.52ZM192 91.8136H193.692V88.1864H192V91.8136Z" fill="#00B1EB" mask="url(#path-13-inside-1_19_192)"/>
<defs>
<linearGradient id="paint0_linear_19_192" x1="307.404" y1="85.5114" x2="11.7764" y2="85.5114" gradientUnits="userSpaceOnUse">
<stop stop-color="#00A7E7"/>
<stop offset="1" stop-color="white"/>
</linearGradient>
<linearGradient id="paint1_linear_19_192" x1="306.884" y1="85.4535" x2="12.7041" y2="85.4535" gradientUnits="userSpaceOnUse">
<stop stop-color="#00A7E7"/>
<stop offset="1" stop-color="white"/>
</linearGradient>
<linearGradient id="paint2_linear_19_192" x1="307.437" y1="85.4535" x2="5.08324" y2="85.4535" gradientUnits="userSpaceOnUse">
<stop stop-color="#00A7E7"/>
<stop offset="1" stop-color="white"/>
</linearGradient>
<linearGradient id="paint3_linear_19_192" x1="308.055" y1="53.0706" x2="11.6328" y2="53.0706" gradientUnits="userSpaceOnUse">
<stop stop-color="#00A7E7"/>
<stop offset="1" stop-color="white"/>
</linearGradient>
<linearGradient id="paint4_linear_19_192" x1="307.183" y1="53.0705" x2="10.7613" y2="53.0705" gradientUnits="userSpaceOnUse">
<stop stop-color="#00A7E7"/>
<stop offset="1" stop-color="white"/>
</linearGradient>
</defs>
</svg>
